<svg version="1.0" xmlns="http://www.w3.org/2000/svg" width="682.667" height="682.667" viewBox="0 0 512 512"><path d="M241.5.7C176.4 4.8 119.3 30.5 74 76c-12.6 12.7-22.4 24.5-21.5 26 .4.6.1.9-.6.8-1.6-.4-17.1 22.3-16.4 24 .2.7-.2 1.5-1.1 1.9-2.3.9-13.4 23.4-18.7 37.9-1.4 3.8-2.8 7.7-3.2 8.6-.7 1.7.7 1.8 19.9 1.8h20.7l1.5-3.8c2.9-6.9 12.1-24.7 15.6-30.1l3.5-5.5 18.9.2c10.4.1 19.7.2 20.8.2 1.3 0 1.6.5 1.1 1.7-1.2 3.2-7.4 28.2-8.1 32.8l-.6 4.5h39.8l2.2-9.3c1.3-5 3.7-13.8 5.4-19.5l3.1-10.2h197.3l3.7 12.2c2 6.8 4.4 15.6 5.4 19.5l1.7 7.3h40.3l-2.8-12.3c-1.5-6.7-3.7-15.5-4.8-19.5l-2-7.2h18.2c10 0 19.2-.3 20.4-.6 2.8-.8 5.7 3.7 16 24.3l7.5 15.3h20.4c11.2 0 20.4-.2 20.4-.4 0-1.2-7.6-20.2-11.2-28-18.5-40.2-48.9-76.5-86-102.4C366.9 22.5 326.5 7.1 285 2.1 276 1 249.9.1 241.5.7zM272 41.8c21.4 6.3 42 23.8 59.2 50.3 2 3.1 3.4 6 3.1 6.3-.4.3-36.4.6-80.1.6h-79.4l2.7-4.8c7.7-13.3 22.1-29.7 34-38.7 11.2-8.4 19.3-12 36-15.9 3.9-.9 18.1.4 24.5 2.2zM142.2 76.7c-2.2 3.7-5.8 10.2-8 14.3l-4 7.5-11.8.3-11.8.3 2.9-3.2c6.2-6.5 35.1-27.6 36.3-26.4.3.2-1.3 3.5-3.6 7.2zM374 75.3c8.7 5.8 23.4 17.3 26.9 21.1l2.4 2.6h-23.1l-5.2-9.6c-2.9-5.3-6.5-11.7-8.1-14.2-1.6-2.5-2.9-5-2.9-5.5 0-1 .3-.8 10 5.6zM2.6 217.2c-.9 1.2-1.2 2.4-.8 2.8.4.3.7.9.8 1.5.1 2.9 1.7 6.4 2.7 5.8.6-.3.7-.1.3.5-.9 1.5 3.8 12.5 4.9 11.5.4-.5.5-.2.1.4-.7 1.3 9.1 26.3 10.8 27.5.6.4.8.8.4.8-1.3 0 10.7 28 12.6 29.2 1.7 1.2 20.5.9 22.7-.3 1.2-.6 1.8-1.7 1.5-2.5-.3-.9-.1-1.2.4-.9.6.3 1 .2 1-.3s2.5-6.3 5.6-12.8c3.1-6.6 7.4-16 9.6-20.9 2.2-5 4.2-9.2 4.4-9.4.2-.2 1.1 1.3 2 3.5 6.8 16.4 17.9 41.2 19.2 42.6 2.2 2.6 21.1 2.6 23.9 0 1.1-.9 4.7-8 8.1-15.7 3.3-7.7 10.6-24.3 16.1-36.9C154.5 231 159 220 159 219.1c0-3.5-2.1-4.1-14.2-4.1-11.1 0-11.8.1-13.2 2.2-.8 1.3-5.2 12-9.7 23.8-4.5 11.8-8.5 21.8-8.8 22.2-.3.4-4.8-9.4-10-21.8-5.2-12.3-10.1-23.3-10.8-24.4-1.3-1.8-2.6-2-11.7-2-8.6 0-10.5.3-11.8 1.7-1.4 1.6-10.4 21.7-18 40-1.7 4-3.3 7.3-3.7 7.3-.3 0-1.4-2.1-2.3-4.8-10.1-28.9-14.1-40.1-15.4-42-1.4-2.1-2.1-2.2-13.4-2.2-11.1 0-12 .1-13.4 2.2zM15 224c0 .5-.2 1-.4 1-.3 0-.8-.5-1.1-1-.3-.6-.1-1 .4-1 .6 0 1.1.4 1.1 1zm26 40c0 .5-.5 1-1.1 1-.5 0-.7-.5-.4-1 .3-.6.8-1 1.1-1 .2 0 .4.4.4 1zM178.8 216.1c-1 .5-1.8 1.7-1.8 2.6 0 1.9 29.5 73.9 31.6 77 1.4 2.2 2.1 2.3 12.3 2.3 9.1 0 11-.3 12.4-1.8 1.4-1.5 19-38.8 21.1-44.6.3-1 .8-1.7 1-1.5.2.2 4.8 10.5 10.1 22.9 5.4 12.4 10.5 23.1 11.3 23.7 2.2 1.8 22.6 1.8 24 0 .6-.6 4.4-9 8.6-18.4 4.1-9.5 11.6-26.5 16.7-37.9 11.6-26.3 11.8-25.4-4.8-25.4-6.5 0-12.4.4-13.1.8-.6.5-5 10.7-9.7 22.8-4.7 12-8.9 22.7-9.3 23.8-.6 1.4-3.3-4-10.6-21.5-5.4-12.9-10.3-24-10.9-24.7-.7-.9-4-1.2-12.1-1l-11.1.3-1.7 3.5c-.9 1.9-5.6 12.8-10.5 24.2-4.8 11.4-9.1 20.7-9.4 20.8-.3 0-4.1-10-8.4-22.3-4.3-12.2-8.4-23.2-9.2-24.5-1.3-2.1-2-2.2-13.1-2.2-6.4 0-12.5.5-13.4 1.1zM354.2 216.2c-.7.7-1.2 2.1-1.2 3.1 0 2.6 29.7 74.7 31.7 76.9 1.3 1.5 3.4 1.8 12.3 1.8 9 0 10.9-.3 12.2-1.8 1.2-1.5 8.9-17.6 19-40.1l2.9-6.5 9.9 22.8c5.5 12.5 10.4 23.4 11.1 24.2.8 1 3.9 1.4 11.9 1.4 9.1 0 10.9-.3 12.3-1.8 2.4-2.6 33.9-74.2 33.9-77.1 0-1.3-.6-2.7-1.3-3.2-2.3-1.4-24.5-1.1-25.7.3-.5.7-5 11.9-10 24.8l-9.1 23.5-1.6-4c-9.7-23.5-18-42.3-19.3-43.8-1.2-1.4-3.3-1.7-11.8-1.7-9.6 0-10.5.2-11.8 2.2-1.2 2-16.6 36.4-16.6 37.2 0 .2-1 2.5-2.1 5.1-1.5 3.4-2.4 4.4-2.9 3.4-.4-.8-4.3-11.2-8.6-23.3-4.2-12-8.4-22.4-9.1-23.2-1.9-1.8-24.3-2-26.1-.2zM12.5 336.7c.4 1 1.4 3.7 2.2 6.1.8 2.3 1.8 4 2.1 3.8.4-.2.7.8.8 2.3.1 3.5 13.9 32.1 15.4 32.1.6 0 .8.4.5 1-.3.5-.2 1 .3 1s.9.6.9 1.3c0 2.3 8.4 14.7 9.5 14 .7-.3.8-.1.4.5-.8 1.3 9.9 16.2 11.5 16.2.5 0 .8.3.7.7-.4 1.5 3.4 6.3 4.5 5.6.5-.3.7-.1.4.4-.8 1.3 2.7 4.6 3.8 3.6.4-.5.5-.3.1.4-.3.6.2 1.8 1.1 2.5 1 .7 2.3 2.2 3 3.3.6 1.1 1.6 1.9 2.3 1.7.6-.1.9.1.6.6-.4.8 15.5 16.2 17.6 17.1.5.1 2 1.4 3.3 2.7 1.5 1.5 3.1 2.2 4.2 1.8 1.3-.4 1.4-.3.5.3-1 .7.1 2 4.1 5.1 3 2.3 5.9 4.2 6.5 4.2.7 0 1.2.4 1.2.8 0 .5 1.6 1.7 3.5 2.8 1.9 1 3.5 2.2 3.5 2.7 0 .4.5.5 1 .2.6-.3 1-.1 1 .4 0 .6.7 1.1 1.5 1.1s1.5.5 1.5 1.1c0 .6.7.8 1.7.5 1-.4 1.4-.4 1 0-1.1 1.2 27.6 16.4 31.4 16.7 1.1.1 1.9.5 1.9.9s.6.8 1.3.8c.7 0 3.2.9 5.4 2 3.7 1.8 23.6 8 27.3 8.5.8.1 2.2.5 3 .8.8.3 4 1.1 7 1.7 3 .5 6.6 1.3 8 1.5 4.7 1 24.5 3.5 27.3 3.5 2 0 2.6-.4 2.1-1.3-.6-.8-.3-.8.9.2 1 .8 3.4 1.2 6.1 1 2.4-.2 4.2-.1 4 .3-.5.8 18.8.2 27.6-.7 2.5-.3 7.2-.8 10.5-1.1 3.3-.4 6.2-1.1 6.3-1.5.2-.5.8-.7 1.3-.4.8.6 11.7-1.1 14.9-2.2.8-.3 2.5-.7 3.7-.9 4.4-.5 14.3-3.7 14.3-4.5 0-.5.6-.6 1.4-.3 3.5 1.4 49.3-18.6 47.9-20.9-.3-.7-.3-.9.2-.5.9.9 8.7-3.2 19.2-10.3 30.5-20.4 60.2-52.1 78.5-84 6.7-11.6 21.8-45.1 21.8-48.4 0-.3-9.2-.5-20.4-.5h-20.5l-6.9 14.2c-3.9 7.9-8.5 16.7-10.4 19.7l-3.3 5.4-20.5-.2c-11.3-.1-20.6-.3-20.7-.5-.1-.1.5-2.4 1.3-5.1.8-2.8 3-11.4 4.8-19.3l3.3-14.2h-40.3l-2.2 9.2c-1.3 5.1-3.7 13.9-5.4 19.5l-3.1 10.3h-43.6c-24 0-67.4 0-96.6.1h-55.1c-1.8-.1-2.6-1.8-5.7-12.4-2-6.7-4.5-15.4-5.5-19.2l-1.7-7-19.8-.3c-17.5-.2-19.7-.1-19.7 1.4 0 1.8 4.2 19.9 6.9 29.9 1.1 3.8 1.6 7.2 1.1 7.5-.4.3-9.7.5-20.6.5H73.7l-4.3-7c-2.4-3.9-4.8-7.6-5.4-8.2-.6-.7-1-1.5-.9-1.8 0-.3-1.5-3.8-3.4-7.8-2-4-4.2-8.9-5.1-11l-1.5-3.7H32.4c-19.2 0-20.6.1-19.9 1.7zm36 18.2c.3.5.2 1.2-.3 1.5-.5.3-.9-.1-.9-.9 0-1.7.3-1.9 1.2-.6zm5 13.1c-.3.5-1.2 1-1.8 1-.7 0-.6-.4.3-1 1.9-1.2 2.3-1.2 1.5 0zm-13 19.9c.3.5.2 1.2-.3 1.5-.5.3-.9-.1-.9-.9 0-1.7.3-1.9 1.2-.6zM335 413.5c0 .9-7.4 12-12.2 18.4-14.4 19.1-33.4 33.7-49.3 38-9.8 2.6-18.1 3.7-22.5 2.9-2.5-.5-5.5-.7-6.7-.5-1.2.2-2 .1-1.8-.3.6-.9-9.4-3.2-10.7-2.3-.6.3-.8.2-.5-.4.3-.5-2.4-2.4-6.1-4.1-3.7-1.7-9.1-4.9-11.9-7.2-2.9-2.2-5.3-3.8-5.3-3.6 0 1.1-16.6-16.8-20.6-22.2-2.5-3.4-5.1-6.2-5.7-6.2-.6 0-.8-.3-.4-.6.3-.4-.9-3.1-2.8-6-1.9-3-3.5-5.6-3.5-5.9 0-.2 4.8-.6 10.8-.7 16.7-.5 149.2.2 149.2.7zm-201.1 6.7c1.9 3.6 3.9 6.4 4.3 6.2.4-.3.6.1.3.8-.3.7.9 3.6 2.7 6.4 7 10.9 7 10.9-.3 6.4-2.7-1.6-4.9-2.6-4.9-2.2 0 .4-.4.1-.8-.5-1.4-2.2-10.5-8.2-11.5-7.6-.6.3-.7.1-.4-.4.4-.6-1.3-2.6-3.7-4.5-5.6-4.4-12.6-10.6-12.6-11.3 0-.3 5.2-.4 11.6-.3l11.7.3 3.6 6.7zm264.2-2.1c-8.8 8.3-31.9 24.9-34.4 24.9-.4 0 1.1-2.9 3.2-6.4 2.2-3.5 5.8-9.9 8.1-14.2 2.2-4.2 4.3-8.1 4.6-8.6.3-.4 5.8-.8 12.2-.8l11.7.1-5.4 5zm-317-2.4c1.3 1.6 1.2 1.7-.3.4-1-.7-1.8-1.5-1.8-1.7 0-.8.8-.3 2.1 1.3zm11.3 28.9c.3.8.2 1.2-.4.9-.6-.3-1-1-1-1.6 0-1.4.7-1.1 1.4.7zm48.6 9.8c0 .2-.8 1-1.7 1.7-1.6 1.3-1.7 1.2-.4-.4 1.3-1.6 2.1-2.1 2.1-1.3zm23.5 5.5c.3.5.2 1.2-.3 1.5-.5.3-.9-.1-.9-.9 0-1.7.3-1.9 1.2-.6zm18 3c.3.5.2 1.2-.3 1.5-.5.3-.9-.1-.9-.9 0-1.7.3-1.9 1.2-.6zm161.9 9.7c.3.8.2 1.2-.4.9-.6-.3-1-1-1-1.6 0-1.4.7-1.1 1.4.7zM133.5 476c.3.6-.1.7-.9.4-1.8-.7-2.1-1.4-.7-1.4.6 0 1.3.4 1.6 1zm20 4c.3.6-.1.7-.9.4-1.8-.7-2.1-1.4-.7-1.4.6 0 1.3.4 1.6 1z"/></svg>